Patient4_TMGait_0pt2_03_left_21_EMG.mot
version=1
nRows=13
nColumns=33
inDegrees=no
endheader
time	1LAddLong	2LGlutMax	3LGlutMed	4LIliopsoas	5LSemiMemb	6LBicFemLong	7LRecFem	8LVastMed	9LVastLat	10LGasMed	11LTibAnt	12lTibPost	13LPeroneusLong	14LSol	15LExtDigLong	16LFlexDigLong	17RAddLong	18RGlutMax	19RGlutMed	20RIliopsoas	21RSemiMemb	22RBicFemLong	23RRecFem	24RVastMed	25RVastLat	26RGasMed	27RTibAnt	28RTibPost	29RPeroneusLong	30RSol	31RExtDigLong	32RFlexDigLong
44.672	0.003052	-0.064087	-0.013733	-0.003967	-0.015411	0.024872	-0.041351	-0.010376	0.20416	0.012665	0.014038	0.003052	-0.11902	-0.016174	-0.022888	-0.000153	0.003052	-0.017395	0.23209	0.12909	0.10239	-0.023499	-0.11932	0.005188	0.060425	0.013275	-0.053253	0.29663	0.82855	-0.18997	0.000763	-0.00061
44.673	-0.006256	-0.09964	-0.018616	-0.001984	-0.000916	-0.014191	0.019379	-0.011902	0.18295	0.019073	0.009613	0.002441	-0.070648	-0.019684	-0.027466	-0.002289	0.004883	-0.007935	0.077057	0.10391	0.042572	-0.031281	-0.022278	-0.031433	0.030365	0.0177	-0.062866	0.11597	0.48096	-0.27451	0.000458	0.000305
44.674	-0.00061	-0.091858	0.075836	0.006866	0.063477	-0.062714	0.066681	-0.006256	0.0354	0.001831	0.030823	-0.007172	-0.055389	-0.014801	-0.02243	-0.002441	0.013275	0.055847	-0.052948	-0.007935	0.050201	-0.013275	-0.027161	-0.043488	0.023956	0.019073	0.011292	0.00946	0.19363	-0.10376	-0.00061	-0.004272
44.675	-0.003357	-0.083313	0.005188	0.004425	0.085754	-0.071411	0.059357	0.004272	-0.11658	0.002136	0.021515	0.000916	-0.068817	-0.010529	-0.038147	0.002136	0.003357	0.089569	-0.21957	-0.13794	0.10269	-0.011597	-0.055847	-0.032043	0.019531	0.012207	0.058594	-0.026093	0.36652	-0.066376	-0.001221	0.000763
44.676	0.006256	-0.066223	-0.049438	0.007324	0.020599	-0.026398	0.12863	0.008698	-0.32333	0.022125	0.016785	0.002594	-0.043793	-0.041962	-0.059357	-0.001373	0.011902	0.076752	-0.28122	-0.10635	0.083313	-0.019836	-0.054169	0.029449	0.026855	0.003662	0.068512	-0.048218	0.19989	-0.13092	-0.001068	0.001984
44.677	0.012665	-0.066376	-0.087891	-0.003662	0.001984	0.035858	0.14969	-0.003052	-0.26001	0.018616	-0.021057	0.000305	-0.000458	-0.048065	-0.023956	-0.001373	0.014801	0.06897	-0.17624	-0.057678	0.037231	-0.014801	-0.019836	0.015106	0.020447	0.008698	0.037231	-0.043488	-0.08255	-0.13565	-0.003052	-0.006714
44.678	0	-0.027008	-0.075684	-0.016479	-0.002899	0.091705	0.15366	-0.009613	-0.16541	0.010834	0.011749	-0.001068	0.002594	-0.016479	0.032349	-0.005798	0.016785	0.10742	0.12955	0.018005	0.032349	-0.015717	-0.006409	-0.000916	0.042877	0.013428	0.012512	-0.063324	-0.22537	-0.22064	-0.004883	-0.006256
44.679	-0.002136	-0.01297	-0.10056	0.007935	0.000458	0.054932	0.096741	-0.01297	-0.1297	0.013428	0.006409	0.001068	-0.005341	-0.013275	0.005798	-0.00412	0.006409	0.031281	0.54275	0.14404	0.045319	-0.013123	0.015106	-0.051422	0.018005	0.009155	0.027161	-0.044861	-0.25925	-0.20447	-0.004425	-0.019684
44.68	0.005493	0.00351	-0.096588	0.018005	-0.010071	0.02594	0.025177	0	-0.20752	0.013428	0.009766	0	-0.001068	-0.011902	-0.014343	-0.007935	0.000916	0.049744	0.12604	0.18616	0.030518	0.013733	-0.025787	-0.033722	0.027924	0.010529	0.021973	-0.13657	-0.12512	-0.14999	-0.002136	-0.012817
44.681	-0.018005	0.024261	0.013428	0.020294	-0.030365	0.065613	-0.011902	-0.004578	-0.21927	0.001984	-0.003662	-0.002594	0.032196	-0.006866	-0.016327	-0.003357	0.014343	0.067291	-0.21255	0.067291	-0.005493	0.002441	-0.021667	-0.008698	0.009766	0.018616	-0.004272	-0.032043	0.15701	-0.29877	-0.014496	-0.014343
44.682	-0.020599	0.055847	0.02594	0.01236	-0.053406	0.13489	-0.081024	0.007172	-0.16815	0.005035	-0.003357	0.000763	0.052338	-0.022888	-0.022278	-0.005493	0.00473	0.025177	-0.15045	0.031738	-0.015259	-0.00351	0.00946	-0.026093	0.00946	0.014648	-0.021667	-0.04776	0.30579	-0.28503	-0.007172	-0.013885
44.683	-0.015564	0.080566	0.16266	0.010071	-0.039368	0.066833	-0.03479	0.020447	0.031738	0.013123	-0.002594	-0.006409	0.011444	-0.025177	-0.026093	-0.004578	0.024261	0.053711	-0.065765	-0.095978	-0.010681	-0.011597	-0.013123	-0.045319	0.023499	0.027313	-0.029755	-0.050049	0.57236	-0.16464	-0.006104	-0.007172
44.684	-0.024109	0.063324	0.05188	0.003662	-0.037537	-0.073242	0.062256	0.017853	0.18768	0.048676	-0.007019	-0.001221	-0.031891	-0.00473	-0.009155	-0.010223	0.023041	-0.024261	-0.11246	-0.1648	0.026703	-0.021362	-0.046539	-0.054016	0.005646	0.036926	-0.001221	-0.052338	0.86014	-0.007324	-0.009155	-0.006409
